<svg id="Group_4675" data-name="Group 4675" xmlns="http://www.w3.org/2000/svg" width="161.166" height="37.863" viewBox="0 0 161.166 37.863">
  <g id="artwork" transform="translate(0 0)">
    <path id="Path_48" data-name="Path 48" d="M59.794,21.562a3.784,3.784,0,0,1-1.043,2.782,4.034,4.034,0,0,1-3.06,1.224,4.173,4.173,0,0,1-3.074-1.252A4.36,4.36,0,0,1,57.4,17.208a3.533,3.533,0,0,1,1.308.932l-.737.737a2.782,2.782,0,0,0-2.281-1,3.339,3.339,0,1,0,2.337,5.745,2.671,2.671,0,0,0,.7-1.7H55.69v-1h4.048A5.213,5.213,0,0,1,59.794,21.562Z" transform="translate(-7.691 -16.753)" fill="#262832"/>
    <path id="Path_48_-_Outline" data-name="Path 48 - Outline" d="M55.86,25.686q-.082,0-.164,0a4.306,4.306,0,0,1-3.15-1.284,4.471,4.471,0,0,1,4.9-7.283,3.659,3.659,0,0,1,1.346.96l.067.076-.892.892-.075-.091A2.668,2.668,0,0,0,55.7,17.99a3.231,3.231,0,1,0,2.255,5.563,2.568,2.568,0,0,0,.658-1.515H55.59V20.822h4.248l.014.091a5.344,5.344,0,0,1,.057.653,3.908,3.908,0,0,1-1.073,2.859A4.164,4.164,0,0,1,55.86,25.686Zm-.162-.218h0a3.947,3.947,0,0,0,2.979-1.192,3.694,3.694,0,0,0,1.013-2.7,5.149,5.149,0,0,0-.042-.537H55.8v.787h3.037l0,.111a2.782,2.782,0,0,1-.723,1.765l0,.005a3.446,3.446,0,1,1-2.412-5.93c.044,0,.093,0,.142,0a2.88,2.88,0,0,1,2.146.955l.583-.583a3.446,3.446,0,0,0-1.2-.829A4.263,4.263,0,0,0,52.7,24.249a4.089,4.089,0,0,0,3,1.22Z" transform="translate(-7.698 -16.76)" fill="#262832"/>
    <path id="Path_49" data-name="Path 49" d="M63.361,18.029H59.605v2.643h3.422v1H59.605v2.643h3.756v1.029H58.52V17h4.841Z" transform="translate(-4.887 -16.698)" fill="#262832"/>
    <path id="Path_49_-_Outline" data-name="Path 49 - Outline" d="M58.42,16.9h5.056v1.244H59.72v2.428h3.422v1.216H59.72v2.428h3.756v1.244H58.42Zm4.841.215H58.635v8.132h4.626v-.815H59.505V21.574h3.422v-.787H59.505V17.929h3.756Z" transform="translate(-4.894 -16.705)" fill="#262832"/>
    <path id="Path_50" data-name="Path 50" d="M66.238,25.347H65.167V18.029H62.83V17h5.8v1.029H66.238Z" transform="translate(-3.201 -16.698)" fill="#262832"/>
    <path id="Path_50_-_Outline" data-name="Path 50 - Outline" d="M66.353,25.461H65.067V18.144H62.73V16.9h6.016v1.244H66.353Zm-1.071-.215h.857V17.929h2.393v-.815H62.945v.815h2.337Z" transform="translate(-3.208 -16.705)" fill="#262832"/>
    <path id="Path_51" data-name="Path 51" d="M69.94,25.347V17h1.071v8.347Z" transform="translate(-0.42 -16.698)" fill="#262832"/>
    <path id="Path_51_-_Outline" data-name="Path 51 - Outline" d="M71.126,25.461H69.84V16.9h1.286Zm-1.071-.215h.857V17.115h-.857Z" transform="translate(-0.428 -16.705)" fill="#262832"/>
    <path id="Path_52" data-name="Path 52" d="M75.088,25.347H74.017V18.029H71.68V17h5.731v1.029H75.088Z" transform="translate(0.26 -16.698)" fill="#262832"/>
    <path id="Path_52_-_Outline" data-name="Path 52 - Outline" d="M75.2,25.461H73.917V18.144H71.58V16.9h5.946v1.244H75.2Zm-1.071-.215h.857V17.929h2.323v-.815H71.795v.815h2.337Z" transform="translate(0.253 -16.705)" fill="#262832"/>
    <path id="Path_53" data-name="Path 53" d="M85.675,24.313a4.326,4.326,0,0,1-6.121,0,4.507,4.507,0,0,1,0-6.177,4.076,4.076,0,0,1,3.06-1.266,4.173,4.173,0,0,1,3.06,1.266A4.271,4.271,0,0,1,86.9,21.225,4.173,4.173,0,0,1,85.675,24.313Zm-5.328-.7a3.186,3.186,0,0,0,4.535,0,3.533,3.533,0,0,0,0-4.785,3.186,3.186,0,0,0-4.535,0A3.533,3.533,0,0,0,80.347,23.617Z" transform="translate(2.861 -16.749)" fill="#262832"/>
    <path id="Path_53_-_Outline" data-name="Path 53 - Outline" d="M82.622,25.7a4.4,4.4,0,0,1-3.136-1.3,4.622,4.622,0,0,1,0-6.326,4.2,4.2,0,0,1,3.141-1.3h.063a4.3,4.3,0,0,1,3.071,1.3,4.4,4.4,0,0,1,1.255,3.163A4.3,4.3,0,0,1,85.758,24.4,4.4,4.4,0,0,1,82.622,25.7Zm-.107-8.712a3.986,3.986,0,0,0-2.876,1.234,4.406,4.406,0,0,0,0,6.029,4.219,4.219,0,0,0,5.967,0A4.08,4.08,0,0,0,86.8,21.235V21.23a4.187,4.187,0,0,0-1.193-3.011,4.087,4.087,0,0,0-2.982-1.234Zm.107,7.7a3.314,3.314,0,0,1-2.344-.98,3.641,3.641,0,0,1,0-4.933,3.293,3.293,0,0,1,4.69,0,3.641,3.641,0,0,1,0,4.933A3.315,3.315,0,0,1,82.622,24.68Zm0-6.682a3.1,3.1,0,0,0-2.191.916,3.426,3.426,0,0,0,0,4.637,3.078,3.078,0,0,0,4.38,0,3.426,3.426,0,0,0,0-4.637A3.1,3.1,0,0,0,82.622,18Z" transform="translate(2.854 -16.757)" fill="#262832"/>
    <path id="Path_54" data-name="Path 54" d="M85.58,25.347V17h1.294l4.062,6.5h0V17h1.071v8.347H90.894l-4.243-6.8h0v6.8Z" transform="translate(5.697 -16.698)" fill="#262832"/>
    <path id="Path_54_-_Outline" data-name="Path 54 - Outline" d="M92.122,25.461h-1.28l-4.076-6.535v6.535H85.48V16.9h1.461l3.9,6.23V16.9h1.286Zm-1.161-.215h.946V17.115H91.05v6.763l-4.229-6.763H85.695v8.132h.857v-7.07Z" transform="translate(5.689 -16.705)" fill="#262832"/>
    <path id="Path_55" data-name="Path 55" d="M88.8,33.59a5.926,5.926,0,1,0,5.94,5.912A5.829,5.829,0,0,0,88.8,33.59Zm0,9.5A3.589,3.589,0,1,1,92.143,39.5,3.422,3.422,0,0,1,88.8,43.092Zm-12.965-9.5a5.926,5.926,0,1,0,5.94,5.912,5.829,5.829,0,0,0-5.94-5.912Zm0,9.5A3.589,3.589,0,1,1,79.178,39.5a3.422,3.422,0,0,1-3.339,3.589ZM60.426,35.413v2.5h6.01a5.244,5.244,0,0,1-1.391,3.158A6.149,6.149,0,0,1,60.4,42.911a6.677,6.677,0,0,1,0-13.355,6.455,6.455,0,0,1,4.563,1.795l1.767-1.767a8.764,8.764,0,0,0-6.3-2.532,9.2,9.2,0,1,0,0,18.377,8.444,8.444,0,0,0,6.413-2.574,8.347,8.347,0,0,0,2.17-5.884,8.721,8.721,0,0,0-.125-1.558Zm63.031,1.948A5.466,5.466,0,0,0,112.829,39.5a5.884,5.884,0,0,0,10.8,3.3l-2.017-1.391a3.353,3.353,0,0,1-2.907,1.628,2.991,2.991,0,0,1-2.866-1.795l7.915-3.269Zm-8.068,1.975a3.255,3.255,0,0,1,3.1-3.464,2.281,2.281,0,0,1,2.184,1.266Zm-6.427,5.731h2.6V27.678h-2.6ZM104.7,34.912h-.1a4.09,4.09,0,0,0-3.116-1.391,5.926,5.926,0,0,0,0,11.838,4.006,4.006,0,0,0,3.116-1.391h.1v.849c0,2.268-1.21,3.478-3.158,3.478a3.283,3.283,0,0,1-2.991-2.1l-2.254.932a5.564,5.564,0,0,0,5.244,3.506c3.047,0,5.564-1.795,5.564-6.163V33.938H104.7Zm-2.991,8.18a3.589,3.589,0,0,1,0-7.164,3.325,3.325,0,0,1,3.172,3.575,3.311,3.311,0,0,1-3.172,3.589Zm33.929-15.414h-6.232V45.067h2.6V38.473h3.631a5.411,5.411,0,1,0,0-10.8Zm0,8.347h-3.631V30.1H135.7a2.977,2.977,0,0,1,0,5.954Zm16.053-2.49a4.855,4.855,0,0,0-4.632,2.657l2.3.96a2.476,2.476,0,0,1,2.379-1.266,2.5,2.5,0,0,1,2.782,2.24v.167a5.815,5.815,0,0,0-2.713-.668c-2.476,0-5.008,1.391-5.008,3.923a4.02,4.02,0,0,0,4.326,3.826,3.686,3.686,0,0,0,3.311-1.7h.083v1.391h2.5V38.376c0-3.047-2.309-4.813-5.272-4.813Zm-.32,9.529c-.849,0-2.031-.431-2.031-1.475,0-1.391,1.475-1.864,2.782-1.864a4.618,4.618,0,0,1,2.365.584,3.144,3.144,0,0,1-3.06,2.782Zm14.774-9.126-2.977,7.54h-.083L160,33.938h-2.782l4.632,10.545-2.643,5.857h2.713l7.123-16.4ZM142.78,45.067h2.587V27.678H142.78Z" transform="translate(-7.878 -12.769)" fill="#262832"/>
    <path id="Path_56" data-name="Path 56" d="M20.626,17.567a2.782,2.782,0,0,0-.654,1.948V50.286a2.7,2.7,0,0,0,.654,1.948l.1.111L37.959,35.109v-.417L20.723,17.47Z" transform="translate(-19.966 -16.514)" fill="#262832"/>
    <path id="Path_57" data-name="Path 57" d="M38.6,37.628l-5.7-5.745v-.417l5.7-5.745.125.083,6.83,3.867c1.948,1.1,1.948,2.907,0,4.02l-6.8,3.867Z" transform="translate(-14.907 -13.288)" fill="#262832"/>
    <path id="Path_58" data-name="Path 58" d="M43.644,35.871,37.773,30,20.44,47.333a2.254,2.254,0,0,0,2.88.1l20.324-11.56" transform="translate(-19.78 -11.614)" fill="#262832"/>
    <path id="Path_59" data-name="Path 59" d="M43.644,29.162,23.32,17.616a2.24,2.24,0,0,0-2.88.083L37.773,35.033Z" transform="translate(-19.78 -16.646)" fill="#262832"/>
    <path id="Path_60" data-name="Path 60" d="M43.477,34.13,23.32,45.607a2.309,2.309,0,0,1-2.782,0h0l-.1.1h0l.1.111h0a2.309,2.309,0,0,0,2.782,0l20.324-11.56Z" transform="translate(-19.78 -9.998)" fill="#262832" opacity="0.2" style="isolation: isolate"/>
    <path id="Path_61" data-name="Path 61" d="M20.614,42.871A2.782,2.782,0,0,1,20,40.91v.209a2.7,2.7,0,0,0,.654,1.948l.1-.1Z" transform="translate(-19.955 -7.346)" fill="#262832" opacity="0.12" style="isolation: isolate"/>
    <path id="Path_62" data-name="Path 62" d="M43.956,31.808,37,35.745l.125.125L43.956,32a2.434,2.434,0,0,0,1.475-2h0A2.587,2.587,0,0,1,43.956,31.808Z" transform="translate(-13.303 -11.614)" fill="#262832" opacity="0.12" style="isolation: isolate"/>
    <path id="Path_63" data-name="Path 63" d="M23.5,17.808,50.616,33.221a2.587,2.587,0,0,1,1.475,1.808h0a2.434,2.434,0,0,0-1.475-2L23.5,17.613c-1.934-1.113-3.533-.195-3.533,2.031v.209C20.012,17.627,21.57,16.709,23.5,17.808Z" transform="translate(-19.964 -16.643)" fill="#262832" opacity="0.25" style="isolation: isolate"/>
  </g>
</svg>
