<svg id="Group_4672" data-name="Group 4672" xmlns="http://www.w3.org/2000/svg" width="152.847" height="40.149" viewBox="0 0 152.847 40.149">
  <g id="Group_965" data-name="Group 965">
    <g id="_Group_" data-name="&lt;Group&gt;">
      <g id="_Group_2" data-name="&lt;Group&gt;">
        <path id="_Path_" data-name="&lt;Path&gt;" d="M36.372,25.259a8.826,8.826,0,0,1,4.2-7.405A9.039,9.039,0,0,0,33.455,14c-3-.314-5.9,1.792-7.427,1.792-1.556,0-3.907-1.761-6.438-1.709a9.484,9.484,0,0,0-7.98,4.865C8.16,24.926,10.733,33.7,14.039,38.53c1.654,2.364,3.586,5,6.115,4.911,2.475-.1,3.4-1.577,6.386-1.577,2.959,0,3.827,1.577,6.407,1.518,2.655-.043,4.329-2.374,5.924-4.76A19.548,19.548,0,0,0,41.58,33.1,8.529,8.529,0,0,1,36.372,25.259Z" transform="translate(-9.972 -4.605)" fill="#262832"/>
        <path id="_Path_2" data-name="&lt;Path&gt;" d="M24.583,14.946A8.688,8.688,0,0,0,26.571,8.72a8.846,8.846,0,0,0-5.723,2.96,8.267,8.267,0,0,0-2.041,6A7.314,7.314,0,0,0,24.583,14.946Z" transform="translate(-3.056 -8.72)" fill="#262832"/>
      </g>
    </g>
    <g id="Group_14" data-name="Group 14" transform="translate(39.382 16.545)">
      <path id="Path_26" data-name="Path 26" d="M46.331,31.771H39.176l-1.718,5.072H34.427L41.2,18.078h3.149l6.777,18.765H48.048Zm-6.414-2.341h5.672l-2.8-8.232h-.078Z" transform="translate(-34.427 -17.765)" fill="#262832"/>
      <path id="Path_27" data-name="Path 27" d="M59.523,28.333c0,4.252-2.276,6.983-5.711,6.983a4.64,4.64,0,0,1-4.306-2.394h-.065V39.7H46.631V21.492h2.719v2.276H49.4a4.855,4.855,0,0,1,4.358-2.419C57.234,21.349,59.523,24.093,59.523,28.333Zm-2.887,0c0-2.77-1.432-4.591-3.617-4.591-2.146,0-3.59,1.859-3.59,4.591,0,2.757,1.444,4.6,3.59,4.6C55.2,32.936,56.636,31.128,56.636,28.333Z" transform="translate(-28.183 -16.095)" fill="#262832"/>
      <path id="Path_28" data-name="Path 28" d="M69.488,28.333c0,4.252-2.276,6.983-5.711,6.983a4.64,4.64,0,0,1-4.306-2.394h-.065V39.7H56.6V21.492h2.719v2.276h.052a4.855,4.855,0,0,1,4.358-2.419C67.2,21.349,69.488,24.093,69.488,28.333Zm-2.887,0c0-2.77-1.432-4.591-3.617-4.591-2.146,0-3.59,1.859-3.59,4.591,0,2.757,1.444,4.6,3.59,4.6,2.185,0,3.617-1.808,3.617-4.6Z" transform="translate(-23.085 -16.095)" fill="#262832"/>
      <path id="Path_29" data-name="Path 29" d="M72.684,31.721c.208,1.861,2.017,3.083,4.488,3.083,2.368,0,4.071-1.222,4.071-2.9,0-1.457-1.027-2.329-3.46-2.926l-2.433-.586C71.9,27.559,70.3,25.948,70.3,23.333c0-3.238,2.823-5.462,6.83-5.462,3.967,0,6.686,2.224,6.777,5.462H81.075c-.17-1.873-1.718-3-3.981-3s-3.812,1.144-3.812,2.808c0,1.327.989,2.107,3.409,2.7l2.068.508c3.851.911,5.452,2.457,5.452,5.2,0,3.511-2.8,5.71-7.247,5.71-4.163,0-6.974-2.147-7.155-5.541Z" transform="translate(-16.325 -17.871)" fill="#262832"/>
      <path id="Path_30" data-name="Path 30" d="M84.975,19.3v3.238h2.6v2.224h-2.6V32.3c0,1.172.521,1.718,1.665,1.718a8.78,8.78,0,0,0,.924-.065v2.211A7.717,7.717,0,0,1,86,36.3c-2.771,0-3.851-1.04-3.851-3.694V24.761h-1.99V22.538h1.99V19.3Z" transform="translate(-11.027 -17.141)" fill="#262832"/>
      <path id="Path_31" data-name="Path 31" d="M86.065,28.341c0-4.3,2.536-7.01,6.491-7.01s6.492,2.7,6.492,7.01-2.511,7.01-6.492,7.01S86.065,32.657,86.065,28.341Zm10.121,0c0-2.953-1.354-4.7-3.63-4.7s-3.629,1.756-3.629,4.7c0,2.965,1.352,4.694,3.629,4.694s3.63-1.73,3.63-4.694Z" transform="translate(-8.007 -16.102)" fill="#262832"/>
      <path id="Path_32" data-name="Path 32" d="M96.186,21.492h2.679V23.82h.065a3.264,3.264,0,0,1,3.292-2.472,4.334,4.334,0,0,1,.962.1V24.08a3.929,3.929,0,0,0-1.262-.17A2.83,2.83,0,0,0,99,27.058v8.115H96.186Z" transform="translate(-2.829 -16.095)" fill="#262832"/>
      <path id="Path_33" data-name="Path 33" d="M113.563,31.162c-.378,2.484-2.8,4.188-5.893,4.188-3.981,0-6.453-2.667-6.453-6.945s2.484-7.075,6.334-7.075c3.786,0,6.168,2.6,6.168,6.749v.962h-9.666v.17a3.564,3.564,0,0,0,3.682,3.875,3.1,3.1,0,0,0,3.161-1.924Zm-9.5-4.083h6.842a3.291,3.291,0,0,0-3.357-3.472,3.464,3.464,0,0,0-3.485,3.472Z" transform="translate(-0.254 -16.102)" fill="#262832"/>
    </g>
  </g>
  <path id="Path_34" data-name="Path 34" d="M38.929,8.734a3.989,3.989,0,0,1,4.244,4.48c0,2.881-1.557,4.536-4.244,4.536H35.671V8.734Zm-1.857,7.742h1.7a2.835,2.835,0,0,0,2.975-3.243,2.843,2.843,0,0,0-2.975-3.224h-1.7Z" transform="translate(8.911 -8.112)" fill="#262832"/>
  <path id="Path_35" data-name="Path 35" d="M41.686,13.639a3.225,3.225,0,1,1,6.42,0,3.225,3.225,0,1,1-6.42,0Zm5.038,0c0-1.475-.663-2.338-1.826-2.338s-1.825.863-1.825,2.338.657,2.343,1.825,2.343,1.826-.862,1.826-2.343Z" transform="translate(11.981 -7.404)" fill="#262832"/>
  <path id="Path_36" data-name="Path 36" d="M54.133,17H52.74l-1.407-5.012h-.106L49.826,17h-1.38l-1.876-6.8h1.363l1.219,5.192h.1l1.4-5.192H51.94l1.4,5.192h.106l1.213-5.192H56Z" transform="translate(14.486 -7.36)" fill="#262832"/>
  <path id="Path_37" data-name="Path 37" d="M53.854,10.242h1.293v1.081h.1a2.038,2.038,0,0,1,2.031-1.212,2.213,2.213,0,0,1,2.356,2.531v4.4H58.291V12.978c0-1.094-.475-1.637-1.469-1.637A1.561,1.561,0,0,0,55.2,13.065v3.981H53.854Z" transform="translate(18.213 -7.407)" fill="#262832"/>
  <path id="Path_38" data-name="Path 38" d="M59.094,8.437h1.343V17.9H59.094Z" transform="translate(20.895 -8.258)" fill="#262832"/>
  <path id="Path_39" data-name="Path 39" d="M61.223,13.639a3.225,3.225,0,1,1,6.421,0,3.225,3.225,0,1,1-6.421,0Zm5.038,0c0-1.475-.663-2.338-1.826-2.338s-1.825.863-1.825,2.338.657,2.343,1.825,2.343,1.826-.862,1.826-2.343Z" transform="translate(21.976 -7.404)" fill="#262832"/>
  <path id="Path_40" data-name="Path 40" d="M66.4,15.119c0-1.225.912-1.931,2.532-2.031l1.844-.106v-.587c0-.719-.475-1.125-1.394-1.125-.75,0-1.27.275-1.419.756h-1.3c.137-1.169,1.237-1.918,2.781-1.918,1.707,0,2.669.849,2.669,2.287v4.649H70.821v-.956h-.106a2.29,2.29,0,0,1-2.045,1.068A2.056,2.056,0,0,1,66.4,15.119Zm4.375-.581v-.569l-1.662.106c-.937.063-1.363.381-1.363.981s.531.969,1.262.969a1.6,1.6,0,0,0,1.763-1.488Z" transform="translate(24.633 -7.404)" fill="#262832"/>
  <path id="Path_41" data-name="Path 41" d="M71.348,14.493c0-2.15,1.106-3.512,2.825-3.512a2.243,2.243,0,0,1,2.087,1.194h.1V8.437H77.7V17.9H76.417V16.823h-.106a2.363,2.363,0,0,1-2.138,1.187C72.442,18.01,71.348,16.648,71.348,14.493Zm1.388,0c0,1.443.681,2.312,1.819,2.312s1.832-.881,1.832-2.306-.707-2.312-1.832-2.312-1.819.874-1.819,2.306Z" transform="translate(27.164 -8.258)" fill="#262832"/>
  <path id="Path_42" data-name="Path 42" d="M79.235,13.639a3.225,3.225,0,1,1,6.42,0,3.225,3.225,0,1,1-6.42,0Zm5.038,0c0-1.475-.663-2.338-1.826-2.338s-1.825.863-1.825,2.338.657,2.343,1.825,2.343S84.273,15.119,84.273,13.639Z" transform="translate(31.192 -7.404)" fill="#262832"/>
  <path id="Path_43" data-name="Path 43" d="M84.669,10.242h1.293v1.081h.1a2.038,2.038,0,0,1,2.031-1.212,2.213,2.213,0,0,1,2.356,2.531v4.4H89.107V12.978c0-1.094-.475-1.637-1.469-1.637a1.561,1.561,0,0,0-1.625,1.724v3.981H84.669Z" transform="translate(33.981 -7.407)" fill="#262832"/>
  <path id="Path_44" data-name="Path 44" d="M94.336,9.074V10.8h1.475V11.93H94.336v3.5c0,.713.294,1.025.962,1.025a4.485,4.485,0,0,0,.512-.031v1.119a4.408,4.408,0,0,1-.731.069c-1.494,0-2.089-.525-2.089-1.837V11.93H91.911V10.8h1.081V9.074Z" transform="translate(37.686 -7.933)" fill="#262832"/>
  <path id="Path_45" data-name="Path 45" d="M95.7,8.437h1.332v3.75h.106a2.1,2.1,0,0,1,2.076-1.219,2.242,2.242,0,0,1,2.344,2.537V17.9h-1.345V13.836c0-1.087-.506-1.637-1.456-1.637a1.59,1.59,0,0,0-1.714,1.725V17.9H95.7Z" transform="translate(39.626 -8.258)" fill="#262832"/>
  <path id="Path_46" data-name="Path 46" d="M106.834,15.207a2.763,2.763,0,0,1-2.949,1.969,3.091,3.091,0,0,1-3.144-3.512,3.139,3.139,0,0,1,3.138-3.555c1.894,0,3.037,1.294,3.037,3.43v.469h-4.807v.075a1.8,1.8,0,0,0,1.813,1.949,1.632,1.632,0,0,0,1.619-.825Zm-4.725-2.193h3.438a1.642,1.642,0,0,0-1.676-1.763,1.741,1.741,0,0,0-1.763,1.763Z" transform="translate(42.187 -7.404)" fill="#262832"/>
</svg>
